<?xml version="1.0" encoding="UTF-8"?>
<!DOCTYPE svg PUBLIC "-//W3C//DTD SVG 1.1//EN" "http://www.w3.org/Graphics/SVG/1.1/DTD/svg11.dtd">
<!-- Creator: CorelDRAW 2017 -->
<svg xmlns="http://www.w3.org/2000/svg" xml:space="preserve" width="60px" height="60px" version="1.1" style="shape-rendering:geometricPrecision; text-rendering:geometricPrecision; image-rendering:optimizeQuality; fill-rule:evenodd; clip-rule:evenodd"
viewBox="0 0 14.84 14.84"
 xmlns:xlink="http://www.w3.org/1999/xlink">
 <defs>
  <style type="text/css">
   <![CDATA[
    .fil1 {fill:none}
    .fil0 {fill:#FEFEFE}
   ]]>
  </style>
 </defs>
 <g id="Camada_x0020_1">
  <metadata id="CorelCorpID_0Corel-Layer"/>
  <path class="fil0" d="M4.38 2.59l-0.01 1.78 -1.68 0c0.06,-0.1 0.28,-0.31 0.41,-0.45l0.95 -0.99c0.04,-0.04 0.07,-0.08 0.11,-0.12 0.07,-0.08 0.12,-0.17 0.22,-0.22zm1.08 8.27l0.24 1.17 0.26 -0.05 -0.24 -1.17 -0.26 0.05zm-1.4 0.96c0.11,0.05 1.28,0.22 1.5,0.24 -0.02,-0.16 -0.2,-1.07 -0.25,-1.16 -0.11,0.06 -0.23,0.14 -0.34,0.21l-0.83 0.53c-0.09,0.06 -0.1,0.07 -0.08,0.18zm7.81 -2.18l0.18 0.88c0.12,0.03 0.55,-0.09 0.71,-0.13 0.22,-0.06 0.38,-0.25 0.35,-0.53 -0.06,-0.61 -0.79,-0.28 -1.24,-0.22zm-8.39 -0.09c-0.19,0.03 -0.31,0.23 -0.18,0.43 0.1,0.16 0.35,0.12 0.58,0.12 0.29,0 1.15,0.04 1.39,-0.01 0.17,-0.03 0.29,-0.23 0.18,-0.42 -0.1,-0.17 -0.34,-0.13 -0.57,-0.13 -0.3,0 -1.17,-0.04 -1.4,0.01zm8.1 -0.11c0,-0.09 -0.02,-0.19 -0.06,-0.25 -0.36,0.04 -0.77,0.17 -1.14,0.23 -0.84,0.15 -1.12,-0.12 -2.41,0.36 -0.17,0.07 -0.33,0.13 -0.49,0.2 -0.15,0.06 -0.45,0.12 -0.39,0.3 0.06,0.19 0.31,0.02 0.44,-0.04 0.46,-0.2 1.09,-0.43 1.59,-0.48 0.44,-0.05 0.88,0 1.31,-0.08 0.38,-0.07 0.78,-0.16 1.15,-0.24zm-3.28 -6.74c-1.18,0.26 -0.42,2.29 0.31,1.93 0.29,-0.15 0.57,-0.67 0.61,-1.15 0.04,-0.51 -0.39,-0.9 -0.92,-0.78zm-4.85 5.67c-0.16,0.06 -0.24,0.17 -0.18,0.36 0.05,0.17 0.18,0.19 0.38,0.19 0.53,0 3.22,0.02 3.37,-0.02 0.21,-0.07 0.36,-0.54 -0.21,-0.54 -0.51,0 -3.24,-0.03 -3.36,0.01zm-0.02 -1.18c-0.3,0.14 -0.19,0.49 0.06,0.53 0.16,0.02 2.45,0 2.73,0 0.42,0 3.49,0.04 3.62,-0.03 0.23,-0.11 0.19,-0.47 -0.07,-0.52 -0.14,-0.03 -2.47,-0.01 -2.73,-0.01 -0.42,0 -3.48,-0.03 -3.61,0.03zm6.55 -0.56c-0.03,-0.33 -0.1,-0.68 -0.2,-0.9 -0.17,-0.39 -0.49,-0.69 -0.97,-0.79 -0.02,0.12 -0.05,0.23 -0.08,0.34 -0.05,0.14 -0.08,0.22 -0.18,0.29 -0.02,-0.31 0.03,-0.36 -0.16,-0.53 -0.2,0.13 -0.12,0.31 -0.16,0.47l-0.04 0.1c-0.11,-0.26 -0.14,-0.34 -0.2,-0.68 -0.42,0.03 -0.81,0.38 -0.99,0.76 -0.07,0.17 -0.16,0.57 -0.2,0.94l3.18 0zm-3.83 4.45l-0.01 -0.1c0.05,-0.07 0.2,-0.08 0.29,-0.1l2.34 -0.5c0.06,-0.01 2.54,-0.55 2.61,-0.54 0.06,0.01 0.02,-0.01 0.06,0.02l0.01 0.09 -5.3 1.13zm-0.29 -0.29l0.23 1.14c0.11,0.03 1.25,-0.24 1.45,-0.28 0.47,-0.11 0.96,-0.21 1.44,-0.3 0.97,-0.2 1.94,-0.4 2.9,-0.61l-0.27 -1.18c-0.64,0.1 -2.16,0.45 -2.88,0.61 -0.32,0.07 -2.78,0.56 -2.87,0.62zm-3.93 2.46l9.38 0c0.28,-0.2 0.2,-0.32 0.21,-0.94 0,-0.32 0.03,-0.82 -0.01,-1.13l-0.54 0.11 0 1.41 -8.69 0 0 -7.78c0.45,0 0.9,0 1.34,0 0.23,0 0.46,0 0.69,0 0.22,0 0.47,0.04 0.57,-0.11 0.1,-0.14 0.04,-2.31 0.04,-2.67l6.05 0 0 6.8 0.55 -0.11 0 -6.51c0,-0.63 0.05,-0.53 -0.2,-0.72l-6.73 0c-0.07,0.05 -0.09,0.04 -0.15,0.1l-1.67 1.77c-0.29,0.33 -0.6,0.63 -0.89,0.96 -0.08,0.09 -0.14,0.12 -0.15,0.3l0.01 7.79c0,0.56 -0.07,0.51 0.19,0.73z"/>
  <rect class="fil1" width="14.84" height="14.84"/>
 </g>
</svg>
