<?xml version="1.0" encoding="UTF-8"?>
<!DOCTYPE svg PUBLIC "-//W3C//DTD SVG 1.1//EN" "http://www.w3.org/Graphics/SVG/1.1/DTD/svg11.dtd">
<!-- Creator: CorelDRAW 2017 -->
<svg xmlns="http://www.w3.org/2000/svg" xml:space="preserve" width="60px" height="60px" version="1.1" style="shape-rendering:geometricPrecision; text-rendering:geometricPrecision; image-rendering:optimizeQuality; fill-rule:evenodd; clip-rule:evenodd"
viewBox="0 0 14.74 14.74"
 xmlns:xlink="http://www.w3.org/1999/xlink">
 <defs>
  <style type="text/css">
   <![CDATA[
    .fil0 {fill:none}
    .fil1 {fill:#FEFEFE}
   ]]>
  </style>
 </defs>
 <g id="Camada_x0020_1">
  <metadata id="CorelCorpID_0Corel-Layer"/>
  <rect class="fil0" width="14.74" height="14.74"/>
  <g id="_1414337056">
   <path class="fil1" d="M6.1 1.58l-0.43 0c-0.07,0.03 -0.22,0.03 -0.3,0.05 -0.41,0.06 -0.87,0.24 -1.2,0.47l-0.55 0.46c-0.2,0.24 -0.24,0.28 -0.42,0.58 -0.15,0.26 -0.3,0.65 -0.36,0.98 -0.17,0.84 -0.03,1.58 0.19,2.34 0.18,0.63 0.42,1.09 0.7,1.65 0.03,0.07 0.09,0.17 0.11,0.23 0.19,-0.1 0.82,-1.13 2.16,-0.9 0.24,0.04 1.62,0.08 1.99,0.1 0.35,0.02 0.58,0.04 0.84,0.21 0.21,0.14 0.36,0.3 0.49,0.55 0.15,0.3 0.15,0.53 0.1,0.89 0.09,-0.06 0.56,-0.52 0.71,-0.65l0.7 -0.65c0.16,-0.14 0.36,-0.34 0.51,-0.47 0.04,-0.03 0.06,-0.06 0.1,-0.09 0.22,-0.19 0.21,-0.19 0.28,-0.49 0.3,-1.29 -0.29,-2.55 -1.31,-3.2 -0.4,-0.26 -0.74,-0.33 -1.25,-0.27 -0.3,0.04 -0.63,0.14 -0.84,0.32 -0.07,0.06 -0.14,0.13 -0.19,0.2 0.16,-0.47 0.06,-0.9 -0.2,-1.32 -0.25,-0.4 -0.47,-0.59 -0.92,-0.76 -0.27,-0.12 -0.54,-0.18 -0.84,-0.21l-0.07 -0.02zm-0.25 0.71c-0.54,0.03 -1.07,0.25 -1.48,0.56 -0.32,0.23 -0.96,0.99 -0.47,1.21 0.09,0.03 0.19,0.02 0.26,-0.02 0.09,-0.05 0.11,-0.1 0.15,-0.2 0.28,-0.7 1.56,-1.2 2.32,-0.84 0.09,0.05 0.13,0.1 0.26,0.08 0.25,-0.03 0.4,-0.39 0.08,-0.57 -0.31,-0.18 -0.71,-0.25 -1.12,-0.22z"/>
   <path class="fil1" d="M1.96 11.54l0 0.27c0.05,0.13 0.01,0.23 0.14,0.51 0.19,0.41 0.57,0.71 1.01,0.8 0.03,0 0.05,0.01 0.07,0.01l0.08 0.02 0.29 0c0,0 0.01,-0.01 0.01,0l0.03 -0.02c0.01,0 0.04,0 0.05,0 0.33,-0.05 0.65,-0.22 0.87,-0.45 0.02,-0.02 0.04,-0.04 0.06,-0.06 0.42,-0.42 0.61,-0.72 1.21,-0.77l3.67 -0.29c0.18,-0.02 0.21,-0.03 0.37,-0.07 0.19,-0.07 0.29,-0.12 0.4,-0.26l0.68 -0.74c0.02,-0.02 0.03,-0.04 0.05,-0.06l0.22 -0.23c0.01,-0.02 0.02,-0.04 0.04,-0.06l0.9 -0.97c0.12,-0.13 0.24,-0.28 0.36,-0.4 0.03,-0.03 0.04,-0.04 0.06,-0.07 0.03,-0.04 0.07,-0.07 0.1,-0.11 0.14,-0.18 0.09,-0.18 0.14,-0.31l0 -0.13c-0.05,-0.13 -0.05,-0.3 -0.29,-0.44 -0.23,-0.12 -0.48,-0.07 -0.68,0.1l-0.56 0.52c-0.05,0.04 -0.05,0.05 -0.09,0.08l-0.57 0.52c-0.02,0.01 -0.03,0.03 -0.05,0.04 -0.11,0.12 -0.42,0.37 -0.52,0.48l-0.19 0.17c-0.04,0.03 -0.05,0.05 -0.09,0.09l-0.29 0.25c-0.09,0.05 -0.18,0.08 -0.28,0.08 -0.2,0 -0.48,-0.04 -0.68,-0.05 -0.44,-0.04 -0.89,-0.08 -1.34,-0.11 -0.1,-0.01 -0.2,-0.05 -0.19,-0.18 0.01,-0.11 0.11,-0.13 0.23,-0.13 0.23,0.01 0.46,0.02 0.69,0.03 0.26,0.02 0.42,0.03 0.62,-0.09 0.54,-0.31 0.46,-1.11 -0.12,-1.32 -0.18,-0.06 -0.47,-0.05 -0.67,-0.06 -0.22,-0.01 -1.63,-0.07 -1.72,-0.09 -0.11,-0.02 -0.2,-0.03 -0.32,-0.03 -0.68,-0.01 -0.98,0.35 -1.39,0.77l-1.08 1.08c-0.25,0.25 -0.48,0.48 -0.72,0.73 -0.22,0.21 -0.33,0.35 -0.44,0.65 -0.03,0.09 -0.03,0.22 -0.07,0.3z"/>
  </g>
 </g>
</svg>
