<?xml version="1.0" encoding="UTF-8"?>
<!DOCTYPE svg PUBLIC "-//W3C//DTD SVG 1.1//EN" "http://www.w3.org/Graphics/SVG/1.1/DTD/svg11.dtd">
<!-- Creator: CorelDRAW 2017 -->
<svg xmlns="http://www.w3.org/2000/svg" xml:space="preserve" width="60px" height="60px" version="1.1" style="shape-rendering:geometricPrecision; text-rendering:geometricPrecision; image-rendering:optimizeQuality; fill-rule:evenodd; clip-rule:evenodd"
viewBox="0 0 9.88 9.88"
 xmlns:xlink="http://www.w3.org/1999/xlink">
 <defs>
  <style type="text/css">
   <![CDATA[
    .fil1 {fill:none}
    .fil0 {fill:#201E1E}
   ]]>
  </style>
 </defs>
 <g id="Camada_x0020_1">
  <metadata id="CorelCorpID_0Corel-Layer"/>
  <path class="fil0" d="M7.26 8.81c0.05,-0.01 0.09,-0.01 0.13,-0.03 -0.08,-0.15 -0.17,-0.27 -0.25,-0.41l-4.58 0c-0.53,0 -0.65,-0.12 -0.65,-0.65l0 -5.24c0,-0.38 -0.09,-0.85 0.34,-0.96l4.57 -0.02c0.37,0 0.76,-0.03 0.76,0.55l0 2.63 0.42 0.22c0,-0.76 0,-1.51 0,-2.26 0,-0.29 0.03,-0.86 -0.06,-1.08 -0.17,-0.43 -0.54,-0.5 -0.62,-0.5l-5.14 0c-0.62,0.02 -0.69,0.62 -0.69,1.09l0 5.32c0,0.26 -0.03,0.6 0.05,0.84 0.07,0.19 0.26,0.37 0.45,0.44 0.21,0.09 0.58,0.06 0.84,0.06l4.43 0zm-1.07 -2.8l0.36 0 0 -0.36c0,-0.1 0.08,-0.18 0.18,-0.18l0 0c0.1,0 0.18,0.08 0.18,0.18l0 0.36 0.36 0c0.09,0 0.17,0.08 0.17,0.18l0 0c0,0.1 -0.08,0.18 -0.17,0.18l-0.36 0 0 0.36c0,0.1 -0.08,0.18 -0.18,0.18l0 0c-0.1,0 -0.18,-0.08 -0.18,-0.18l0 -0.36 -0.36 0c-0.1,0 -0.18,-0.08 -0.18,-0.18l0 0c0,-0.1 0.08,-0.18 0.18,-0.18zm-2.57 -2.58l0.21 -0.55 -0.06 -0.09 0.24 0 -0.07 0.09 0.22 0.56 -0.26 0.27 -0.28 -0.28zm1.21 -0.12c-0.17,-0.44 -0.53,-0.53 -0.69,-0.59 0.03,-0.03 0.08,-0.07 0.11,-0.11 0.34,-0.4 0.14,-0.97 -0.35,-0.97 -0.43,-0.01 -0.67,0.44 -0.47,0.82 0.1,0.19 0.16,0.2 0.21,0.26 -0.17,0.07 -0.54,0.16 -0.7,0.62 -0.04,0.14 0,0.53 0,0.69l1.9 0c0,-0.13 0.03,-0.62 -0.01,-0.72zm-1.76 1.14l3.06 0c-0.19,0.06 -0.37,0.16 -0.54,0.28l-2.52 0c-0.08,0 -0.15,-0.06 -0.15,-0.14l0 0c0,-0.08 0.07,-0.14 0.15,-0.14zm0 1.3l1.84 0c-0.02,0.09 -0.03,0.19 -0.04,0.28l-1.8 0c-0.08,0 -0.15,-0.06 -0.15,-0.14l0 0c0,-0.07 0.07,-0.14 0.15,-0.14zm1.15 0.61l0.65 0c0,0.02 0,0.04 0,0.07 0.01,0.07 0.03,0.14 0.05,0.21l-0.7 0c-0.08,0 -0.14,-0.06 -0.14,-0.14l0 0c0,-0.08 0.06,-0.14 0.14,-0.14zm-1.15 -1.27l2.15 0c-0.06,0.08 -0.12,0.18 -0.17,0.28l-1.98 0c-0.08,0 -0.15,-0.06 -0.15,-0.14l0 0c0,-0.08 0.07,-0.14 0.15,-0.14zm2.46 1.25c0.09,0.62 0.63,1.13 1.36,1.04 0.59,-0.07 1.12,-0.64 1.03,-1.34 -0.05,-0.34 -0.23,-0.62 -0.43,-0.77 -0.86,-0.69 -2.11,0.01 -1.96,1.07zm2.45 2.48l0.13 0c0.07,-0.04 0.16,-0.05 0.24,-0.18 0.08,-0.14 0.04,-0.22 0,-0.35 -0.1,0.04 -0.46,0.27 -0.61,0.35 0.03,0.12 0.14,0.12 0.24,0.18zm-0.79 -1.12c0.02,0.05 0.45,0.8 0.48,0.82l0.61 -0.34c-0.01,-0.05 -0.42,-0.77 -0.47,-0.83 -0.08,0.03 -0.22,0.13 -0.31,0.17 -0.09,0.06 -0.2,0.14 -0.31,0.18zm-1.57 -2.43c-0.21,0.24 -0.38,0.67 -0.32,1.1 0.1,0.73 0.74,1.34 1.61,1.24 0.72,-0.08 1.35,-0.76 1.24,-1.61 -0.16,-1.25 -1.69,-1.68 -2.53,-0.73z"/>
  <rect class="fil1" width="9.88" height="9.88"/>
 </g>
</svg>
