<?xml version="1.0" encoding="UTF-8"?>
<!DOCTYPE svg PUBLIC "-//W3C//DTD SVG 1.1//EN" "http://www.w3.org/Graphics/SVG/1.1/DTD/svg11.dtd">
<!-- Creator: CorelDRAW 2017 -->
<svg xmlns="http://www.w3.org/2000/svg" xml:space="preserve" width="60px" height="60px" version="1.1" style="shape-rendering:geometricPrecision; text-rendering:geometricPrecision; image-rendering:optimizeQuality; fill-rule:evenodd; clip-rule:evenodd"
viewBox="0 0 29.37 29.37"
 xmlns:xlink="http://www.w3.org/1999/xlink">
 <defs>
  <style type="text/css">
   <![CDATA[
    .fil0 {fill:none}
    .fil1 {fill:#FEFEFE}
   ]]>
  </style>
 </defs>
 <g id="Camada_x0020_1">
  <metadata id="CorelCorpID_0Corel-Layer"/>
  <rect class="fil0" width="29.37" height="29.37"/>
  <path class="fil1" d="M11.84 11.15l-2.43 3.8c-0.6,0.98 -0.58,1.25 -0.59,2.56 -0.01,0.93 0.09,2.25 -0.01,3.13 -1.04,0.26 -2.02,0.51 -3.04,0.77 -0.58,0.15 -0.95,0.21 -1.25,0.66 -0.31,0.48 -0.33,1.09 -0.04,1.57 0.59,0.99 1.67,0.6 2.81,0.3 4.14,-1.09 4.35,-0.57 4.35,-3.34 0,-1.01 -0.08,-0.81 0.39,-1.49 0.26,-0.39 0.53,-0.77 0.8,-1.17 0.52,-0.77 1.04,-1.52 1.56,-2.3 0.27,-0.38 0.51,-0.74 0.77,-1.13l0.8 -1.14c0.15,0.1 0.61,0.85 0.76,1.07 0.27,0.4 0.44,0.76 1,0.89 0.45,0.11 3.11,0.07 3.71,0.04 1.25,-0.07 1.57,-1.49 0.73,-2.1 -0.57,-0.41 -2.73,-0.23 -3.59,-0.23 -0.23,-0.3 -0.5,-0.71 -0.72,-1.05 -0.75,-1.16 -1.41,-2.33 -2.67,-2.86 -1.06,-0.45 -3.77,-0.31 -5.23,-0.31 -0.71,0.01 -0.93,0.19 -1.24,0.61 -0.52,0.72 -1.01,1.41 -1.54,2.15 -0.22,0.31 -0.61,0.72 -0.61,1.23 0,1.16 1.43,1.56 2.1,0.67l1.53 -2.15c0.2,-0.27 0.34,-0.2 0.71,-0.19 0.32,0 0.63,-0.01 0.94,0.01zm10.24 7.84c-1.6,0.04 -2.88,1.32 -2.93,2.91 -0.06,1.64 1.23,3 2.75,3.11 0.91,0.06 1.71,-0.26 2.21,-0.72 1.94,-1.79 0.89,-5.39 -2.03,-5.3zm-6.57 7.18c0.28,-0.03 0.1,0.03 0.28,0.04 0.25,0.02 0.03,-0.06 0.33,-0.04 0.42,0.02 0.77,-0.38 0.91,-0.69 0.25,-0.57 0.14,-3.88 0.14,-4.64 0.01,-1.54 -0.23,-1.48 -1.03,-2.2l-1.74 -1.42c-0.09,0.19 -0.26,0.38 -0.4,0.59l-1.14 1.72c0.13,0.2 1.22,1.06 1.49,1.29 0.01,1.09 0.01,2.2 0,3.29 0,0.5 -0.04,1.04 0.19,1.42 0.17,0.28 0.55,0.65 0.97,0.64zm-0.76 -19.96c0.12,1.44 1.33,2.64 2.88,2.62 2.23,-0.04 3.72,-2.65 2.1,-4.73 -1.47,-1.88 -5.21,-0.82 -4.98,2.11z"/>
 </g>
</svg>
