<?xml version="1.0" encoding="UTF-8"?>
<!DOCTYPE svg PUBLIC "-//W3C//DTD SVG 1.1//EN" "http://www.w3.org/Graphics/SVG/1.1/DTD/svg11.dtd">
<!-- Creator: CorelDRAW 2017 -->
<svg xmlns="http://www.w3.org/2000/svg" xml:space="preserve" width="60px" height="60px" version="1.1" style="shape-rendering:geometricPrecision; text-rendering:geometricPrecision; image-rendering:optimizeQuality; fill-rule:evenodd; clip-rule:evenodd"
viewBox="0 0 29.79 29.79"
 xmlns:xlink="http://www.w3.org/1999/xlink">
 <defs>
  <style type="text/css">
   <![CDATA[
    .fil0 {fill:none}
    .fil1 {fill:#FEFEFE}
   ]]>
  </style>
 </defs>
 <g id="Camada_x0020_1">
  <metadata id="CorelCorpID_0Corel-Layer"/>
  <rect class="fil0" width="29.79" height="29.79"/>
  <path class="fil1" d="M3.86 5.55l0 17.04c0.05,0.09 0.13,0.48 0.18,0.63 0.19,0.56 0.64,1.06 1.14,1.35 0.87,0.49 1.85,0.36 2.97,0.36 1.93,0 3.97,0.08 5.88,-0.01 0.06,-0.11 0.5,-1.59 0.52,-1.75 -2.5,-0.07 -4.59,0 -7.17,0 -1.37,0 -1.75,0.06 -1.75,-1.46 0,-0.9 -0.05,-15.53 0.01,-15.89 0.37,-0.06 7.44,-0.01 8.03,-0.01 0.94,0 8.63,-0.06 8.81,0.02 0.1,0.22 0.02,7.99 0.03,8.85 0.22,-0.02 0.5,-0.18 0.79,-0.22 0.4,-0.06 0.64,0.03 0.96,0.01 0.04,-2.17 0.01,-4.91 0.01,-7.08 0,-1.39 0.2,-2.83 -1.18,-3.74 -0.58,-0.38 -0.95,-0.33 -1.19,-0.45l-15.7 0 -2.34 0 0 2.35zm6.13 5.04c0.12,-0.05 0.07,-0.07 0.07,-0.4 0,-0.3 0.02,-1.19 -0.02,-1.38 -0.1,-0.02 -1.58,-0.07 -1.76,0.02l0 1.74 1.71 0.02zm-1.67 7.27c-0.09,0.04 -0.06,0.02 -0.07,0.18l0.03 1.6c0.21,0.04 0.63,0.02 0.86,0.02l0.67 0c0,0 0.1,0 0.11,0 0.16,-0.02 0.08,-0.02 0.12,-0.05l0 -1.73 -1.72 -0.02zm10.66 0.07c0.07,-0.04 0.03,0.06 0.07,-0.08 -0.78,-0.02 -7.05,-0.04 -7.24,0.03l-0.01 1.75c0.27,0.07 4.05,0.01 5.14,0.02 0.05,0 0.13,0 0.18,0 0.17,0 0.11,0.02 0.17,-0.06 0.15,-0.06 0.68,-0.64 0.86,-0.82 0.16,-0.15 0.28,-0.27 0.42,-0.42 0.14,-0.13 0.32,-0.29 0.41,-0.42zm-10.71 -2.77c0.19,0.05 1.6,0.06 1.78,0l0 -1.74c-0.18,-0.05 -1.59,-0.05 -1.78,0l0 1.74zm13.66 2.37c0.07,0.13 0.5,0.53 0.64,0.67 0.25,0.24 0.44,0.44 0.66,0.67 0.23,0.23 0.43,0.43 0.66,0.66 0.18,0.19 0.48,0.52 0.68,0.68 0.11,-0.06 1.17,-1.1 1.28,-1.37 0.3,-0.74 -0.36,-1.2 -0.84,-1.68 -0.47,-0.47 -0.97,-1.18 -1.69,-0.92 -0.28,0.11 -0.54,0.42 -0.72,0.6 -0.22,0.22 -0.49,0.46 -0.67,0.69zm-10.11 -6.95l8.02 0 0.01 -1.76 -8.03 0 0 1.76zm-0.02 4.59c1.05,0.06 2.47,0.01 3.63,0.01 0.61,0 4.14,0.07 4.42,-0.03l0.01 -1.72c-0.17,-0.06 -7.31,-0.06 -8.04,-0.02l-0.02 1.76zm11.95 6.03c-0.1,-0.17 -2.73,-2.76 -2.78,-2.79l-4.27 4.24c-0.3,0.29 -0.33,0.72 -0.49,1.23l-0.57 1.95c-0.4,1.21 0.84,0.63 1.3,0.5l1.98 -0.58c0.33,-0.1 0.36,-0.08 0.57,-0.28 0.57,-0.54 1.17,-1.21 1.7,-1.71l2.56 -2.56z"/>
 </g>
</svg>
