<?xml version="1.0" encoding="UTF-8"?>
<!DOCTYPE svg PUBLIC "-//W3C//DTD SVG 1.1//EN" "http://www.w3.org/Graphics/SVG/1.1/DTD/svg11.dtd">
<!-- Creator: CorelDRAW 2017 -->
<svg xmlns="http://www.w3.org/2000/svg" xml:space="preserve" width="60px" height="60px" version="1.1" style="shape-rendering:geometricPrecision; text-rendering:geometricPrecision; image-rendering:optimizeQuality; fill-rule:evenodd; clip-rule:evenodd"
viewBox="0 0 4209.94 4209.94"
 xmlns:xlink="http://www.w3.org/1999/xlink">
 <defs>
  <style type="text/css">
   <![CDATA[
    .fil1 {fill:none}
    .fil0 {fill:#FEFEFE}
   ]]>
  </style>
 </defs>
 <g id="Camada_x0020_1">
  <metadata id="CorelCorpID_0Corel-Layer"/>
  <path class="fil0" d="M548.45 758.87l0 2363.28c29.09,56.11 45.83,226.08 248.87,284.76 89.01,25.77 171.71,13.17 284.59,12.51l2060.05 0.08c114.45,-0.33 191.44,13.93 281.35,-16.07 70.03,-23.29 121.58,-63.9 156.14,-107.49 72.68,-91.66 57.59,-128.62 82.04,-189.53l0 -2337.35c-11.77,-29.5 -15.16,-68.37 -30.58,-104.34 -37.54,-87.51 -111.05,-161.18 -207.68,-192.51 -90.91,-29.42 -166.16,-16.82 -281.27,-16.16l-2060.05 -0.08c-115.94,0.41 -198.65,-13.93 -289.73,14.5 -202.29,63.07 -212.82,223.84 -243.73,288.4zm877.38 1137.93c-59.01,15.91 -56.35,51.46 -91.08,52.7 -25.03,0.83 -70.27,-15.08 -108.23,29.92 -37.38,44.25 -7.46,47.57 -74.75,71.68 -88.68,31.75 -65.97,100.28 -86.36,131.19 -8.61,13.01 -25.77,19.56 -39.53,33.57 -28.67,29.25 -38.03,56.43 -28.5,111.29 7.21,40.7 -27.1,67.3 -34.98,109.4 -12.68,68.04 28.93,77.15 27.19,120 -3.07,75.99 -35.47,80.47 42.68,158.12 31.16,30.91 7.12,96.96 74.75,146.68 13.59,10.03 32.9,15.83 46.24,26.52 30.75,24.78 17.15,86.11 122.57,95.89 65.55,6.13 44.42,30 91.57,54.44 55.78,28.84 79.48,-8.86 116.52,-6.71 26.94,1.58 58.26,42.76 116.44,19.64 46.82,-18.64 39.78,-45.66 100.94,-39.61 96.88,9.53 98.45,-70.77 132.01,-87.51 29.09,-14.51 95.14,-7.46 113.13,-106.08 12.01,-65.64 75.99,-41.11 86.35,-130.94 2.73,-24.45 -3.98,-49.89 -0.58,-70.03 7.54,-45.41 87.68,-83.12 14.09,-220.44 -22.29,-41.69 37.21,-95.88 -37.46,-169.48 -14.75,-14.58 -27.1,-14.08 -34.81,-38.37 -15.83,-50.22 12.1,-86.68 -92.81,-127.62 -49.15,-19.23 -26.28,-87.02 -116.77,-102.85 -23.37,-4.06 -40.44,1 -61.83,-9.94 -23.7,-12.1 -53.78,-74.25 -161.1,-39.28 -45.33,14.75 -59.09,-27.52 -115.69,-12.18zm70.44 407.32c-84.36,12.76 -156.88,91.24 -141.88,196.57 12.18,85.44 89.59,160.53 186.3,145.77 80.55,-12.34 153.23,-95.22 139.39,-195.49 -11.52,-84.45 -87.51,-161.52 -183.81,-146.85zm824.09 77.65l258.73 -1.08c-105.17,106 -155.22,268.76 -101.6,417.93 112.62,313.51 534.11,308.04 648.15,8.04 66.63,-175.28 -4.4,-330.58 -94.89,-419.67 8.78,-22.46 49.47,-56.6 71.85,-97.21 18.56,-33.81 34.64,-84.95 48.48,-122.16 30.91,-82.87 59,-168.72 87.84,-253.67 47.32,-139.89 -65.55,-112.62 -199.06,-112.62 -59,0 -288.31,3.15 -327.18,-0.67 -5.8,-41.52 -2.24,-320.55 -0.91,-379.72 6.05,-267.68 104.83,-126.71 87.35,-285.66 -56.94,-20.56 -149.26,19.64 -179.84,46.07 -39.78,34.48 -67.87,79.81 -81.46,152.32 -13.34,71.61 -8.87,257.74 -8.87,348.4 0,34.97 2.82,85.28 -0.66,118.34 -46.16,6.22 -122.57,-2.15 -174.86,0 -71.52,2.99 -100.12,11.19 -119.42,-61.65 -26.19,-99.2 -47.08,-205.61 -71.28,-306.38 -14.33,-59.84 -94.22,-414.12 -114.77,-454.07 -26.61,-51.46 -75.09,-46.65 -138.57,-46.65 -121.16,0 -242.24,0 -363.4,0 -69.03,0 -303.97,-10.03 -349.55,14.25 -44.75,23.7 -45.75,77.07 -45.75,142.21l0.75 577.71c-0.67,76.74 -45.17,70.52 -133.26,143.7 -17.74,14.75 -34.73,28.09 -44.26,51.38 -23.2,56.94 12.6,110.06 50.39,124.64 58.51,22.54 96.38,-21.38 127.96,-44.91 381.87,-284.34 910.02,-55.2 984.61,439.72 8.37,55.61 3.48,119.34 32.57,157.54 30.16,39.53 89.91,42.76 126.63,4.23 40.11,-42.1 25.69,-96.72 24.28,-160.36zm-986.44 -775.69l686.11 0.25c-0.5,-22.13 -21.38,-93.73 -27.43,-119.76l-58.43 -238.67c-4.89,-20.05 -10.03,-39.45 -15,-59.17 -6.96,-27.35 -6.63,-38.79 -24.03,-53.04 -26.69,-21.96 -91.58,-14.92 -128.62,-14.92 -137.82,0.17 -300.08,-3.89 -432.02,0.33l-0.58 484.98zm1443.65 847.29c-102.93,15 -194.26,116.6 -178.51,243.32 13.34,106.4 112.96,202.95 230.8,184.8 101.02,-15.5 192.6,-115.19 176.11,-240.16 -13.93,-106.41 -108.65,-205.28 -228.4,-187.96zm-1287.1 -348.23c-180.17,13.51 -342.1,189.53 -325.11,398.12 15.5,189.7 178.92,361.74 378.48,341.27 184.14,-18.98 339.94,-182.15 326.02,-398.78 -12.01,-189.53 -181.49,-355.53 -379.39,-340.61zm-191.11 1377.93c-43.26,20.55 -69.44,127.12 -90.99,178.84 -46.33,111.38 60.75,94.47 145.69,94.31l1564.72 0.33c124.4,1.41 99.7,-49.23 66.3,-136.33 -34.22,-89.5 -30.25,-142.29 -129.03,-142.04 -217.62,0.58 -1533.81,-6.05 -1556.69,4.89zm-439.97 -2843.62c-103.59,26.1 -144.11,97.95 -143.62,227.65 1.16,279.45 -13.5,2176.33 7.46,2243.29 34.89,111.63 109.97,133.84 236.94,133.75l2258.53 0c75.33,0.25 81.55,9.2 138.57,-5.55 107.98,-27.93 140.05,-121.08 139.14,-230.3 -2.49,-289.98 12.18,-2164.06 -11.35,-2241.88 -32.66,-107.82 -107.91,-133.92 -235.28,-133.51 -476.77,1.41 -733.68,-2.73 -1210.36,0 -237.18,1.41 -455.14,-0.83 -692.32,0 -109.31,0.41 -426.46,-8.87 -487.71,6.55z"/>
  <rect class="fil1" x="-0.03" y="-0.01" width="4209.95" height="4209.96"/>
 </g>
</svg>
